<svg aria-hidden="true" style="position: absolute; width: 0; height: 0; overflow: hidden;" version="1.1" xmlns="http://www.w3.org/2000/svg" xmlns:xlink="http://www.w3.org/1999/xlink">
<defs>

<symbol id="icon-icon-left-arrow" viewBox="0 0 32 32">
<path fill="#fff" style="fill: var(--color1, #fff)" d="M3.441 15.312c0-6.936 5.623-12.559 12.559-12.559s12.559 5.623 12.559 12.559c0 6.936-5.623 12.559-12.559 12.559s-12.559-5.623-12.559-12.559z"></path>
<path fill="none" stroke="#e97522" style="stroke: var(--color2, #e97522)" stroke-linejoin="miter" stroke-linecap="round" stroke-miterlimit="4" stroke-width="1.3763" d="M18.382 22.538l-6.481-6.481c-0.269-0.269-0.269-0.704 0-0.973l6.481-6.481"></path>
</symbol>

<symbol id="icon-icon-right-arrow" viewBox="0 0 32 32">
<path fill="#fff" style="fill: var(--color1, #fff)" d="M28.559 15.312c0 6.936-5.623 12.559-12.559 12.559s-12.559-5.623-12.559-12.559c0-6.936 5.623-12.559 12.559-12.559s12.559 5.623 12.559 12.559z"></path>
<path fill="none" stroke="#e97522" style="stroke: var(--color2, #e97522)" stroke-linejoin="miter" stroke-linecap="round" stroke-miterlimit="4" stroke-width="1.3763" d="M13.618 8.086l6.481 6.481c0.269 0.269 0.269 0.704 0 0.973l-6.481 6.481"></path>
</symbol>

</defs>
</svg>
