<?xml version="1.0" standalone="no"?>
<!DOCTYPE svg PUBLIC "-//W3C//DTD SVG 20010904//EN"
 "http://www.w3.org/TR/2001/REC-SVG-20010904/DTD/svg10.dtd">
<svg version="1.0" xmlns="http://www.w3.org/2000/svg"
 width="477.000000pt" height="268.000000pt" viewBox="0 0 477.000000 268.000000"
 preserveAspectRatio="xMidYMid meet">
<metadata>
Created by potrace 1.16, written by Peter Selinger 2001-2019
</metadata>
<g transform="translate(0.000000,268.000000) scale(0.100000,-0.100000)"
fill="#000000" stroke="none">
<path d="M2090 2509 c-532 -39 -986 -163 -1340 -367 -124 -72 -188 -120 -284
-211 -659 -636 11 -1417 1369 -1595 926 -122 1898 84 2394 507 218 186 326
424 293 647 -23 161 -86 273 -237 426 -147 147 -302 248 -535 347 -461 196
-1087 289 -1660 246z m685 -59 c516 -55 967 -198 1284 -407 103 -68 282 -244
330 -326 66 -113 85 -179 85 -307 0 -128 -19 -197 -85 -306 -299 -495 -1288
-815 -2294 -744 -571 41 -1062 185 -1413 416 -110 72 -283 245 -335 334 -111
192 -111 410 0 599 47 80 172 214 266 284 334 251 858 418 1462 467 135 11
563 5 700 -10z"/>
<path d="M1986 2084 c-63 -48 -164 -167 -248 -294 -68 -102 -164 -287 -187
-362 -8 -25 -28 -48 -64 -76 -60 -45 -116 -76 -124 -68 -3 3 11 46 31 97 20
50 36 98 36 107 0 10 -25 43 -55 75 -66 69 -88 72 -144 22 -36 -33 -136 -169
-171 -233 -8 -15 -21 -31 -27 -35 -7 -4 -13 -16 -13 -26 0 -9 -13 -30 -30 -46
-16 -15 -27 -32 -23 -38 3 -5 0 -8 -8 -5 -7 2 -55 -28 -106 -69 -97 -75 -161
-116 -202 -128 -23 -7 -24 -7 -16 51 22 175 156 507 348 859 34 62 41 83 32
92 -7 6 -23 26 -37 43 -17 22 -31 31 -42 27 -22 -9 -96 -125 -96 -151 0 -12
-27 -77 -60 -144 -110 -224 -226 -536 -237 -642 -9 -93 1 -125 60 -181 59 -57
91 -62 160 -28 52 27 158 101 178 125 8 11 0 7 -21 -8 -19 -14 -46 -29 -60
-32 -20 -6 -16 2 25 40 28 26 50 50 50 54 0 5 12 18 28 30 15 12 27 26 27 33
0 6 -12 0 -27 -14 -27 -24 -85 -68 -110 -83 -8 -4 -11 -2 -8 6 3 7 43 45 90
83 46 39 80 72 74 73 -5 2 -7 8 -4 12 5 9 20 -2 72 -52 20 -20 23 -20 46 -5
25 16 143 176 140 189 -1 3 5 9 14 12 12 5 14 2 9 -16 -23 -78 -21 -85 32
-138 27 -27 58 -50 68 -50 11 0 39 9 63 20 24 11 44 20 46 20 1 0 0 -11 -2
-24 -10 -48 25 -121 82 -175 79 -74 124 -68 230 34 33 31 52 52 43 45 -35 -24
-17 8 43 81 34 41 65 78 69 82 3 4 24 -8 45 -28 22 -19 47 -35 56 -35 10 0 35
21 55 46 l38 46 9 -26 c5 -14 12 -26 16 -26 3 0 21 -13 39 -30 39 -36 41 -36
92 -10 l39 20 17 -25 c9 -14 21 -25 26 -25 5 0 18 -10 28 -22 l18 -22 22 44
c61 121 220 320 220 276 0 -55 34 -129 83 -181 28 -30 57 -55 64 -55 7 0 13
-6 13 -14 0 -24 32 -28 60 -8 14 10 48 52 77 92 29 40 61 82 72 93 l20 21 -13
-45 c-17 -56 -8 -83 46 -131 46 -42 54 -44 103 -24 19 8 35 14 35 12 0 -2 -9
-38 -20 -81 -31 -121 -28 -143 25 -195 32 -32 48 -41 56 -33 8 8 7 16 -2 31
-11 17 -9 35 15 114 15 51 34 112 43 135 l15 42 32 -23 c80 -61 213 -62 346
-2 109 49 120 52 120 34 0 -20 85 -88 110 -88 35 0 74 26 132 89 76 82 101
118 86 123 -7 3 -46 -31 -87 -74 -68 -73 -126 -116 -138 -105 -2 3 4 8 15 11
60 19 263 285 247 324 -6 15 -9 14 -23 -8 -73 -107 -233 -282 -240 -261 -2 6
10 27 27 47 32 36 43 67 16 44 -22 -19 -19 -7 25 80 43 85 47 104 28 117 -7 4
-18 17 -24 28 -28 50 -56 24 -114 -105 -19 -41 -47 -88 -64 -105 -16 -16 -26
-23 -21 -15 4 8 -3 3 -18 -12 -26 -28 -44 -38 -32 -17 4 6 -10 2 -31 -9 -67
-34 -145 -52 -225 -52 -43 0 -80 4 -83 9 -3 5 11 21 32 37 67 50 233 218 276
280 46 65 61 104 51 136 -6 18 -7 19 -20 1 -12 -16 -13 -15 -9 7 3 14 0 32 -6
40 -8 13 -14 10 -35 -15 -13 -16 -24 -39 -25 -51 0 -37 -143 -191 -263 -283
-16 -13 -17 -12 -8 10 5 13 50 109 100 213 50 104 91 191 91 193 0 2 16 29 35
59 l36 55 -32 40 c-36 46 -48 48 -70 11 -98 -165 -143 -251 -210 -405 -86
-196 -94 -207 -204 -278 -40 -26 -61 -34 -63 -26 -1 7 13 52 33 100 19 49 35
96 35 105 -1 29 -103 132 -131 132 -37 0 -90 -50 -157 -149 -58 -83 -112 -141
-133 -141 -10 0 -16 25 -23 102 -4 48 -11 65 -42 103 -43 51 -59 55 -99 23
l-28 -21 12 22 c14 25 7 55 -19 81 -10 10 -20 24 -23 31 -9 21 -29 -9 -97
-142 -50 -98 -70 -126 -130 -182 -70 -67 -90 -79 -90 -54 0 20 56 172 75 205
11 18 15 37 11 48 -7 17 -10 16 -32 -11 l-25 -30 17 37 c14 31 15 40 4 53 -17
20 -34 6 -66 -54 -13 -25 -46 -71 -74 -101 l-51 -55 17 40 c25 61 29 87 13 99
-8 6 -19 20 -25 31 -24 44 -42 30 -93 -77 -46 -95 -60 -114 -178 -235 -123
-126 -186 -173 -233 -173 -18 0 -20 6 -19 53 1 77 20 131 46 135 26 4 88 70
184 198 85 113 210 314 203 325 -2 5 4 17 15 28 23 23 111 193 111 214 0 7
-14 32 -31 55 -38 52 -61 54 -123 6z m-6 -194 c-28 -51 -63 -111 -77 -134 -46
-73 -216 -306 -221 -302 -7 8 84 189 122 241 20 28 59 84 88 125 55 80 130
171 136 166 2 -2 -20 -45 -48 -96z m-1104 -122 c-37 -89 -61 -138 -69 -138 -5
0 -6 -4 -2 -9 5 -10 -1 -29 -41 -119 -21 -47 -45 -109 -105 -281 -10 -30 -19
-60 -19 -68 0 -8 -4 -12 -9 -9 -10 6 -21 -39 -22 -93 0 -27 -2 -31 -8 -17 -16
41 35 253 94 391 7 17 25 62 40 100 44 112 143 301 153 291 3 -3 -3 -25 -12
-48z"/>
<path d="M4118 1803 c-14 -16 -38 -46 -52 -67 l-26 -39 36 -35 c21 -21 39 -31
45 -25 14 14 79 124 79 134 0 18 -20 8 -51 -23 l-31 -33 27 47 c24 43 26 68 6
68 -4 0 -19 -12 -33 -27z"/>
<path d="M2348 829 c-15 -8 -18 -24 -18 -92 0 -87 8 -107 45 -107 37 0 45 20
45 107 0 71 -3 84 -19 93 -24 12 -31 12 -53 -1z"/>
<path d="M2568 829 c-15 -8 -18 -24 -18 -92 0 -87 8 -107 45 -107 37 0 45 20
45 107 0 71 -3 84 -19 93 -24 12 -31 12 -53 -1z"/>
</g>
</svg>
