<svg aria-hidden="true" style="position:absolute;width:0;height:0;overflow:hidden" xmlns="http://www.w3.org/2000/svg"><defs><symbol id="icon-bottom-arrow" viewBox="0 0 57 32"><path fill="none" stroke="#e97522" style="stroke:var(--color1, #e97522)" stroke-linecap="round" stroke-width="6.857" d="M52.571 4.571 30.248 26.739a2.382 2.382 0 0 1-3.352 0L4.571 4.571"/></symbol><symbol id="icon-camera" viewBox="0 0 32 32"><path fill="#bbbdc1" style="fill:var(--color2, #bbbdc1)" d="M15.999 20.267a4.267 4.267 0 1 0 0-8.534 4.267 4.267 0 0 0 0 8.534z"/><path fill="#bbbdc1" style="fill:var(--color2, #bbbdc1)" d="m11.999 2.667-2.44 2.667H5.332a2.675 2.675 0 0 0-2.667 2.667v16c0 1.467 1.2 2.667 2.667 2.667h21.333c1.467 0 2.667-1.2 2.667-2.667v-16c0-1.467-1.2-2.667-2.667-2.667h-4.227l-2.44-2.667h-8zm4 20c-3.68 0-6.667-2.987-6.667-6.667s2.987-6.667 6.667-6.667c3.68 0 6.667 2.987 6.667 6.667s-2.987 6.667-6.667 6.667z"/></symbol><symbol id="icon-check-circle" viewBox="0 0 34 32"><path fill="#4a4a4a" style="fill:var(--color3, #4a4a4a)" d="M32.392 16.444c0-8.5-7-15.5-15.5-15.5-8.563 0-15.5 7-15.5 15.5 0 8.563 6.938 15.5 15.5 15.5 8.5 0 15.5-6.938 15.5-15.5zm-17.312 8.25c-.375.375-1.063.375-1.438 0l-6.5-6.5c-.375-.375-.375-1.063 0-1.438l1.438-1.375a.884.884 0 0 1 1.375 0l4.438 4.375 9.375-9.375a.884.884 0 0 1 1.375 0l1.438 1.375c.375.375.375 1.063 0 1.438l-11.5 11.5z"/></symbol><symbol id="icon-check-circle-orange" viewBox="0 0 32 32"><path fill="#e97522" style="fill:var(--color1, #e97522)" d="m31.68 4.959-18.24 18.4-6.88-6.88 2.4-2.24 4.48 4.48 16-16 2.24 2.24z"/><path fill="#e97522" style="fill:var(--color1, #e97522)" d="m30.72 10.56-2.24 2.24c.32.96.48 2.08.48 3.2 0 7.36-5.92 13.12-13.12 13.12C8.48 29.12 2.72 23.2 2.72 16c0-7.36 5.92-13.12 13.12-13.12 2.56 0 5.12.8 7.2 2.08l2.08-2.08C22.56 1.12 19.36 0 16 0 7.2 0 0 7.2 0 16s7.2 16 16 16 16-7.2 16-16c-.32-1.92-.64-3.84-1.28-5.44z"/></symbol><symbol id="icon-close-cross" viewBox="0 0 31 32"><path fill="none" stroke="#fff" style="stroke:var(--color4, #fff)" stroke-linecap="round" stroke-width="2.783" d="m1.391 1.391 29.217 29.217M30.609 1.391 1.392 30.608"/></symbol><symbol id="icon-facebook" viewBox="0 0 24 32"><path style="" d="M15.261 8.433v3.749h7.303l-1.168 5.781h-6.135v14.038h-8.23V17.963H.339v-5.781h6.692V7.779c0-5.014 3.93-7.778 9.954-7.778 2.882 0 5.895.394 5.895.394v4.916h-3.327c-3.272 0-4.291 1.54-4.291 3.123z"/></symbol><symbol id="icon-instagram" viewBox="0 0 33 32"><path  style="" d="M31.487 5.518c-.417-1.051-.967-1.942-1.868-2.834S27.818 1.248 26.756.835c-1.024-.394-2.2-.657-3.925-.741C21.105.019 20.556 0 16.166 0s-4.94.019-6.665.094C7.785.178 6.609.441 5.576.845c-1.062.413-1.963.957-2.863 1.849S1.262 4.477.845 5.528C.447 6.541.181 7.705.096 9.404.02 11.112.001 11.656.001 16.001s.019 4.889.095 6.597c.085 1.708.351 2.872.758 3.885.417 1.051.967 1.943 1.868 2.834s1.801 1.436 2.863 1.849c1.024.394 2.2.666 3.925.741s2.276.094 6.665.094c4.39 0 4.94-.019 6.665-.094 1.716-.075 2.892-.347 3.925-.741 1.062-.413 1.963-.957 2.863-1.849s1.451-1.783 1.868-2.834c.398-1.013.673-2.177.749-3.885s.095-2.252.095-6.597-.019-4.889-.095-6.597c-.085-1.699-.36-2.862-.759-3.885zM16.165 24.221c-4.589 0-8.305-3.679-8.305-8.221s3.717-8.221 8.305-8.221c4.589 0 8.305 3.679 8.305 8.221s-3.717 8.221-8.305 8.221zm8.637-14.837c-1.071 0-1.944-.863-1.944-1.924s.872-1.924 1.944-1.924c1.071 0 1.944.863 1.944 1.924a1.943 1.943 0 0 1-1.944 1.924zM21.56 16c0 2.947-2.408 5.33-5.385 5.33S10.79 18.946 10.79 16c0-2.947 2.408-5.33 5.385-5.33 2.968 0 5.385 2.384 5.385 5.33z"/></symbol><symbol id="icon-left-arrow" viewBox="0 0 17 32"><path fill="none" stroke="#e97522" style="stroke:var(--color1, #e97522)" stroke-linecap="round" stroke-width="2.844" d="M15.234 30.222 1.839 16.828a1.423 1.423 0 0 1 0-2.011L15.234 1.422"/></symbol><symbol id="icon-nav-active-circle" viewBox="0 0 35 32"><path fill="#e97522" style="fill:var(--color1, #e97522)" d="M33.333 16c0 8.837-7.163 16-16 16s-16-7.163-16-16 7.163-16 16-16 16 7.163 16 16z"/></symbol><symbol id="icon-nav-notactive-circle" viewBox="0 0 37 32"><path fill="#b1b1b1" style="fill:var(--color5, #b1b1b1)" d="M34.667 16c0 8.837-7.163 16-16 16s-16-7.163-16-16 7.163-16 16-16 16 7.163 16 16z"/></symbol><symbol id="icon-number-five" viewBox="0 0 26 32"><path fill="#e97522" style="fill:var(--color1, #e97522)" d="M12.131 11.476c4.305 0 7.476.858 9.513 2.575 2.065 1.716 3.098 4.015 3.098 6.895 0 1.862-.465 3.564-1.396 5.105-.931 1.513-2.356 2.735-4.276 3.665-1.891.902-4.233 1.353-7.025 1.353-2.153 0-4.276-.276-6.371-.829-2.065-.582-3.825-1.396-5.28-2.444l2.793-5.411c1.164.873 2.502 1.556 4.015 2.051 1.513.465 3.069.698 4.669.698 1.775 0 3.171-.349 4.189-1.047s1.527-1.673 1.527-2.924c0-1.309-.538-2.298-1.615-2.967-1.047-.669-2.88-1.004-5.498-1.004H2.663L4.234-.001h18.633v5.673H10.125l-.48 5.804h2.487z"/></symbol><symbol id="icon-number-four" viewBox="0 0 30 32"><path fill="#e97522" style="fill:var(--color1, #e97522)" d="M30.399 25.28h-5.211V32h-7.223v-6.72H.731v-4.983L15.817 0h7.771L9.599 19.246h8.594v-5.989h6.994v5.989h5.211v6.034z"/></symbol><symbol id="icon-number-one" viewBox="0 0 25 32"><path fill="#e97522" style="fill:var(--color1, #e97522)" d="M14.151 0v32H6.745V5.943h-6.4V0h13.806z"/></symbol><symbol id="icon-number-three" viewBox="0 0 26 32"><path fill="#e97522" style="fill:var(--color1, #e97522)" d="M17.446 12.436c2.676.436 4.727 1.44 6.153 3.011 1.425 1.542 2.138 3.462 2.138 5.76a9.233 9.233 0 0 1-1.396 4.931c-.931 1.484-2.356 2.676-4.276 3.578-1.891.902-4.218 1.353-6.982 1.353-2.153 0-4.276-.276-6.371-.829-2.065-.582-3.825-1.396-5.28-2.444l2.749-5.411c1.164.873 2.502 1.556 4.015 2.051 1.542.465 3.113.698 4.713.698 1.774 0 3.171-.335 4.189-1.004 1.018-.698 1.527-1.673 1.527-2.924 0-2.502-1.905-3.753-5.716-3.753H9.68v-4.669l6.284-7.113H2.96V-.002h21.382V4.58l-6.895 7.855z"/></symbol><symbol id="icon-number-two" viewBox="0 0 25 32"><path fill="#e97522" style="fill:var(--color1, #e97522)" d="M24.586 26.24V32H1.502v-4.582l11.782-11.127c1.251-1.193 2.095-2.211 2.531-3.055.436-.873.655-1.731.655-2.575 0-1.222-.422-2.153-1.265-2.793-.815-.669-2.022-1.004-3.622-1.004-1.338 0-2.545.262-3.622.785-1.076.495-1.978 1.251-2.705 2.269L.107 6.602C1.3 4.827 2.943 3.446 5.038 2.457 7.133 1.439 9.533.93 12.238.93c2.269 0 4.247.378 5.934 1.135 1.716.727 3.04 1.775 3.971 3.142.96 1.338 1.44 2.924 1.44 4.756 0 1.658-.349 3.215-1.047 4.669s-2.051 3.113-4.058 4.975l-7.025 6.633h13.134z"/></symbol><symbol id="icon-right-arrow" viewBox="0 0 60 60"><path fill="none" stroke="#e97522" style="stroke:var(--color1, #e97522)" stroke-linecap="round" stroke-width="2.844" d="m1.833 1.778 13.395 13.394a1.423 1.423 0 0 1 0 2.011L1.833 30.578"/></symbol><symbol id="icon-telegram" viewBox="0 0 40 32"><path style="" d="M39.948 3.009c-.098 1.304-.909 5.862-1.707 10.782l-2.517 14.603s-.197 2.143-1.916 2.506c-1.707.374-4.531-1.304-5.035-1.678-.405-.283-7.552-4.467-10.168-6.508-.7-.556-1.511-1.678.098-2.971 3.623-3.073 7.958-6.882 10.573-9.297 1.204-1.111 2.419-3.719-2.616-.556l-14.196 8.832s-1.609.93-4.63.091-6.545-1.95-6.545-1.95-2.419-1.395 1.707-2.88L26.464 5.06c2.321-.93 10.168-3.9 10.168-3.9s3.623-1.304 3.316 1.848z"/></symbol><symbol id="icon-top-arrow" viewBox="0 0 57 32"><path fill="none" stroke="#e97522" style="stroke:var(--color1, #e97522)" stroke-linecap="round" stroke-width="6.857" d="M4.571 27.429 26.894 5.261a2.382 2.382 0 0 1 3.352 0l22.325 22.168"/></symbol><symbol id="icon-twitter" viewBox="0 0 35 32"><path style="" d="M30.683 5.721a13.304 13.304 0 0 0 4.069-1.196 15.194 15.194 0 0 1-3.541 3.932c.01.321.021.653.021.986 0 10.024-7.134 21.587-20.179 21.587-4.007 0-7.734-1.252-10.871-3.411.559.066 1.118.1 1.688.1 3.323 0 6.378-1.218 8.811-3.245-3.106-.066-5.725-2.26-6.626-5.272.435.089.88.133 1.336.133a6.58 6.58 0 0 0 1.874-.266c-3.241-.698-5.694-3.766-5.694-7.443v-.1c.953.565 2.05.908 3.21.953-1.905-1.362-3.158-3.688-3.158-6.313 0-1.385.352-2.692.963-3.81 3.499 4.597 8.728 7.609 14.619 7.931a7.889 7.889 0 0 1-.186-1.728c0-4.187 3.178-7.587 7.092-7.587 2.04 0 3.883.919 5.177 2.392a13.802 13.802 0 0 0 4.504-1.839c-.518 1.772-1.636 3.256-3.106 4.198z"/></symbol>
<symbol id="icon-call" viewBox="0 0 32 32">
<path fill="#4a4a4a" style="fill: var(--color1, #4a4a4a)" d="M26.68 20.507c-1.64 0-3.227-0.267-4.707-0.747-0.467-0.16-0.987-0.040-1.347 0.32l-2.093 2.627c-3.773-1.8-7.307-5.2-9.187-9.107l2.6-2.213c0.36-0.373 0.467-0.893 0.32-1.36-0.493-1.48-0.747-3.067-0.747-4.707 0-0.72-0.6-1.32-1.32-1.32h-4.613c-0.72 0-1.587 0.32-1.587 1.32 0 12.387 10.307 22.68 22.68 22.68 0.947 0 1.32-0.84 1.32-1.573v-4.6c0-0.72-0.6-1.32-1.32-1.32z"></path>
</symbol>
<symbol id="icon-menu" viewBox="0 0 31 32">
<path fill="#e97522" style="fill: var(--color2, #e97522)" d="M4.662 7.059c-0.78 0-1.412 0.632-1.412 1.412s0.632 1.412 1.412 1.412v-2.824zM26.987 9.882c0.78 0 1.412-0.632 1.412-1.412s-0.632-1.412-1.412-1.412v2.824zM4.662 9.882h22.325v-2.824h-22.325v2.824z"></path>
<path fill="#e97522" style="fill: var(--color2, #e97522)" d="M4.662 14.588c-0.78 0-1.412 0.632-1.412 1.412s0.632 1.412 1.412 1.412v-2.824zM26.987 17.412c0.78 0 1.412-0.632 1.412-1.412s-0.632-1.412-1.412-1.412v2.824zM4.662 17.412h22.325v-2.824h-22.325v2.824z"></path>
<path fill="#e97522" style="fill: var(--color2, #e97522)" d="M4.662 22.118c-0.78 0-1.412 0.632-1.412 1.412s0.632 1.412 1.412 1.412v-2.824zM26.987 24.941c0.78 0 1.412-0.632 1.412-1.412s-0.632-1.412-1.412-1.412v2.824zM4.662 24.941h22.325v-2.824h-22.325v2.824z"></path>
</symbol>
<symbol id="icon-logo-lalunaki" viewBox="0 0 57 32">
<path d="M24.955 2.042c-6.352 0.466-11.773 1.946-16 4.382-1.481 0.86-2.245 1.433-3.391 2.519-7.869 7.594 0.131 16.919 16.346 19.045 11.057 1.457 22.663-1.003 28.585-6.054 2.603-2.221 3.893-5.063 3.498-7.725-0.275-1.922-1.027-3.26-2.83-5.087-1.755-1.755-3.606-2.961-6.388-4.143-5.504-2.34-12.979-3.451-19.821-2.937zM33.134 2.746c6.161 0.657 11.546 2.364 15.331 4.86 1.23 0.812 3.367 2.913 3.94 3.893 0.788 1.349 1.015 2.137 1.015 3.666s-0.227 2.352-1.015 3.654c-3.57 5.91-15.379 9.731-27.391 8.884-6.818-0.49-12.681-2.209-16.872-4.967-1.313-0.86-3.379-2.925-4-3.988-1.325-2.293-1.325-4.896 0-7.152 0.561-0.955 2.054-2.555 3.176-3.391 3.988-2.997 10.245-4.991 17.457-5.576 1.612-0.131 6.722-0.060 8.358 0.119z"></path>
<path d="M23.713 7.116c-0.752 0.573-1.958 1.994-2.961 3.51-0.812 1.218-1.958 3.427-2.233 4.322-0.096 0.299-0.334 0.573-0.764 0.907-0.716 0.537-1.385 0.907-1.481 0.812-0.036-0.036 0.131-0.549 0.37-1.158 0.239-0.597 0.43-1.17 0.43-1.278 0-0.119-0.299-0.513-0.657-0.896-0.788-0.824-1.051-0.86-1.719-0.263-0.43 0.394-1.624 2.018-2.042 2.782-0.096 0.179-0.251 0.37-0.322 0.418-0.084 0.048-0.155 0.191-0.155 0.31 0 0.107-0.155 0.358-0.358 0.549-0.191 0.179-0.322 0.382-0.275 0.454 0.036 0.060 0 0.096-0.096 0.060-0.084-0.024-0.657 0.334-1.266 0.824-1.158 0.896-1.922 1.385-2.412 1.528-0.275 0.084-0.287 0.084-0.191-0.609 0.263-2.090 1.863-6.054 4.155-10.257 0.406-0.74 0.49-0.991 0.382-1.098-0.084-0.072-0.275-0.31-0.442-0.513-0.203-0.263-0.37-0.37-0.502-0.322-0.263 0.107-1.146 1.493-1.146 1.803 0 0.143-0.322 0.919-0.716 1.719-1.313 2.675-2.699 6.4-2.83 7.666-0.107 1.11 0.012 1.493 0.716 2.161 0.704 0.681 1.087 0.74 1.91 0.334 0.621-0.322 1.887-1.206 2.125-1.493 0.096-0.131 0-0.084-0.251 0.096-0.227 0.167-0.549 0.346-0.716 0.382-0.239 0.072-0.191-0.024 0.299-0.478 0.334-0.31 0.597-0.597 0.597-0.645 0-0.060 0.143-0.215 0.334-0.358 0.179-0.143 0.322-0.31 0.322-0.394 0-0.072-0.143 0-0.322 0.167-0.322 0.287-1.015 0.812-1.313 0.991-0.096 0.048-0.131 0.024-0.096-0.072 0.036-0.084 0.513-0.537 1.075-0.991 0.549-0.466 0.955-0.86 0.884-0.872-0.060-0.024-0.084-0.096-0.048-0.143 0.060-0.107 0.239 0.024 0.86 0.621 0.239 0.239 0.275 0.239 0.549 0.060 0.299-0.191 1.707-2.101 1.672-2.257-0.012-0.036 0.060-0.107 0.167-0.143 0.143-0.060 0.167-0.024 0.107 0.191-0.275 0.931-0.251 1.015 0.382 1.648 0.322 0.322 0.693 0.597 0.812 0.597 0.131 0 0.466-0.107 0.752-0.239s0.525-0.239 0.549-0.239c0.012 0 0 0.131-0.024 0.287-0.119 0.573 0.299 1.445 0.979 2.090 0.943 0.884 1.481 0.812 2.746-0.406 0.394-0.37 0.621-0.621 0.513-0.537-0.418 0.287-0.203-0.096 0.513-0.967 0.406-0.49 0.776-0.931 0.824-0.979 0.036-0.048 0.287 0.096 0.537 0.334 0.263 0.227 0.561 0.418 0.669 0.418 0.119 0 0.418-0.251 0.657-0.549l0.454-0.549 0.107 0.31c0.060 0.167 0.143 0.31 0.191 0.31 0.036 0 0.251 0.155 0.466 0.358 0.466 0.43 0.49 0.43 1.099 0.119l0.466-0.239 0.203 0.299c0.107 0.167 0.251 0.299 0.31 0.299s0.215 0.119 0.334 0.263l0.215 0.263 0.263-0.525c0.728-1.445 2.627-3.821 2.627-3.296 0 0.657 0.406 1.54 0.991 2.161 0.334 0.358 0.681 0.657 0.764 0.657s0.155 0.072 0.155 0.167c0 0.287 0.382 0.334 0.716 0.096 0.167-0.119 0.573-0.621 0.919-1.099s0.728-0.979 0.86-1.11l0.239-0.251-0.155 0.537c-0.203 0.669-0.096 0.991 0.549 1.564 0.549 0.502 0.645 0.525 1.23 0.287 0.227-0.096 0.418-0.167 0.418-0.143s-0.107 0.454-0.239 0.967c-0.37 1.445-0.334 1.707 0.298 2.328 0.382 0.382 0.573 0.49 0.669 0.394s0.084-0.191-0.024-0.37c-0.131-0.203-0.107-0.418 0.179-1.361 0.179-0.609 0.406-1.337 0.513-1.612l0.179-0.502 0.382 0.275c0.955 0.728 2.543 0.74 4.131 0.024 1.301-0.585 1.433-0.621 1.433-0.406 0 0.239 1.015 1.051 1.313 1.051 0.418 0 0.884-0.31 1.576-1.063 0.907-0.979 1.206-1.409 1.027-1.469-0.084-0.036-0.549 0.37-1.039 0.884-0.812 0.872-1.504 1.385-1.648 1.254-0.024-0.036 0.048-0.096 0.179-0.131 0.716-0.227 3.14-3.403 2.949-3.869-0.072-0.179-0.107-0.167-0.275 0.096-0.872 1.278-2.782 3.367-2.866 3.116-0.024-0.072 0.119-0.322 0.322-0.561 0.382-0.43 0.513-0.8 0.191-0.525-0.263 0.227-0.227 0.084 0.298-0.955 0.513-1.015 0.561-1.242 0.334-1.397-0.084-0.048-0.215-0.203-0.287-0.334-0.334-0.597-0.669-0.287-1.361 1.254-0.227 0.49-0.561 1.051-0.764 1.254-0.191 0.191-0.31 0.275-0.251 0.179 0.048-0.096-0.036-0.036-0.215 0.143-0.31 0.334-0.525 0.454-0.382 0.203 0.048-0.072-0.119-0.024-0.37 0.107-0.8 0.406-1.731 0.621-2.687 0.621-0.513 0-0.955-0.048-0.991-0.107s0.131-0.251 0.382-0.442c0.8-0.597 2.782-2.603 3.296-3.343 0.549-0.776 0.728-1.242 0.609-1.624-0.072-0.215-0.084-0.227-0.239-0.012-0.143 0.191-0.155 0.179-0.107-0.084 0.036-0.167 0-0.382-0.072-0.478-0.096-0.155-0.167-0.119-0.418 0.179-0.155 0.191-0.287 0.466-0.298 0.609 0 0.442-1.707 2.281-3.14 3.379-0.191 0.155-0.203 0.143-0.096-0.119 0.060-0.155 0.597-1.302 1.194-2.543s1.087-2.281 1.087-2.304c0-0.024 0.191-0.346 0.418-0.704l0.43-0.657-0.382-0.478c-0.43-0.549-0.573-0.573-0.836-0.131-1.17 1.97-1.707 2.997-2.507 4.836-1.027 2.34-1.122 2.472-2.436 3.319-0.478 0.31-0.728 0.406-0.752 0.31-0.012-0.084 0.155-0.621 0.394-1.194 0.227-0.585 0.418-1.146 0.418-1.254-0.012-0.346-1.23-1.576-1.564-1.576-0.442 0-1.075 0.597-1.875 1.779-0.693 0.991-1.337 1.684-1.588 1.684-0.119 0-0.191-0.299-0.275-1.218-0.048-0.573-0.131-0.776-0.502-1.23-0.513-0.609-0.704-0.657-1.182-0.275l-0.334 0.251 0.143-0.263c0.167-0.299 0.084-0.657-0.227-0.967-0.119-0.119-0.239-0.287-0.275-0.37-0.107-0.251-0.346 0.107-1.158 1.696-0.597 1.17-0.836 1.504-1.552 2.173-0.836 0.8-1.075 0.943-1.075 0.645 0-0.239 0.669-2.054 0.896-2.448 0.131-0.215 0.179-0.442 0.131-0.573-0.084-0.203-0.119-0.191-0.382 0.131l-0.299 0.358 0.203-0.442c0.167-0.37 0.179-0.478 0.048-0.633-0.203-0.239-0.406-0.072-0.788 0.645-0.155 0.299-0.549 0.848-0.884 1.206l-0.609 0.657 0.203-0.478c0.299-0.728 0.346-1.039 0.155-1.182-0.096-0.072-0.227-0.239-0.299-0.37-0.287-0.525-0.502-0.358-1.11 0.919-0.549 1.134-0.716 1.361-2.125 2.806-1.469 1.504-2.221 2.066-2.782 2.066-0.215 0-0.239-0.072-0.227-0.633 0.012-0.919 0.239-1.564 0.549-1.612s1.051-0.836 2.197-2.364c1.015-1.349 2.507-3.749 2.424-3.881-0.024-0.060 0.048-0.203 0.179-0.334 0.275-0.275 1.325-2.304 1.325-2.555 0-0.084-0.167-0.382-0.37-0.657-0.454-0.621-0.728-0.645-1.469-0.072zM23.642 9.433c-0.334 0.609-0.752 1.325-0.919 1.6-0.549 0.872-2.579 3.654-2.639 3.606-0.084-0.096 1.003-2.257 1.457-2.878 0.239-0.334 0.704-1.003 1.051-1.493 0.657-0.955 1.552-2.042 1.624-1.982 0.024 0.024-0.239 0.537-0.573 1.146zM10.46 10.89c-0.442 1.063-0.728 1.648-0.824 1.648-0.060 0-0.072 0.048-0.024 0.107 0.060 0.119-0.012 0.346-0.49 1.421-0.251 0.561-0.537 1.302-1.254 3.355-0.119 0.358-0.227 0.716-0.227 0.812s-0.048 0.143-0.107 0.107c-0.119-0.072-0.251 0.466-0.263 1.11 0 0.322-0.024 0.37-0.096 0.203-0.191-0.49 0.418-3.021 1.122-4.669 0.084-0.203 0.299-0.74 0.478-1.194 0.525-1.337 1.707-3.594 1.827-3.475 0.036 0.036-0.036 0.299-0.143 0.573z"></path>
<path d="M49.17 10.472c-0.167 0.191-0.454 0.549-0.621 0.8l-0.31 0.466 0.43 0.418c0.251 0.251 0.466 0.37 0.537 0.299 0.167-0.167 0.943-1.481 0.943-1.6 0-0.215-0.239-0.096-0.609 0.275l-0.37 0.394 0.322-0.561c0.287-0.513 0.31-0.812 0.072-0.812-0.048 0-0.227 0.143-0.394 0.322z"></path>
<path d="M28.036 22.102c-0.179 0.096-0.215 0.287-0.215 1.099 0 1.039 0.096 1.278 0.537 1.278s0.537-0.239 0.537-1.278c0-0.848-0.036-1.003-0.227-1.11-0.287-0.143-0.37-0.143-0.633 0.012z"></path>
<path d="M30.663 22.102c-0.179 0.096-0.215 0.287-0.215 1.099 0 1.039 0.096 1.278 0.537 1.278s0.537-0.239 0.537-1.278c0-0.848-0.036-1.003-0.227-1.11-0.287-0.143-0.37-0.143-0.633 0.012z"></path>
</symbol></defs></svg>